<svg width="1000pt" height="1000pt" viewBox="0 0 1000 1000" xmlns="http://www.w3.org/2000/svg"><path fill="#000" d="M220.12 279.03c19.64-19.65 39.27-39.29 58.92-58.92 73.67 73.63 147.31 147.29 220.95 220.94 73.66-73.64 147.29-147.31 220.97-220.94 19.65 19.63 39.28 39.28 58.92 58.92C706.22 352.68 632.57 426.34 558.92 500c73.64 73.65 147.31 147.27 220.95 220.93-19.63 19.65-39.29 39.28-58.91 58.94-73.65-73.66-147.3-147.32-220.97-220.97-73.64 73.66-147.31 147.3-220.95 220.97-19.62-19.66-39.28-39.29-58.91-58.94C293.76 647.27 367.44 573.65 441.08 500c-73.65-73.66-147.3-147.32-220.96-220.97z"/></svg>